{
  "accessors": [
    {
      "bufferView": 0,
      "componentType": 5126,
      "count": 4,
      "max": [
        1.0,
        0.0,
        -0.0,
        0.0,
        -0.0,
        3.576279254957626e-07,
        -1.0,
        0.0,
        -0.0,
        1.0,
        3.576279254957626e-07,
        0.0,
        -0.0,
        1.4210854715202004e-14,
        0.9066593647003174,
        1.0
      ],
      "min": [
        1.0,
        0.0,
        -0.0,
        0.0,
        -0.0,
        3.576279254957626e-07,
        -1.0,
        0.0,
        -0.0,
        1.0,
        3.576279254957626e-07,
        0.0,
        -0.0,
        0.0,
        -0.5397019982337952,
        1.0
      ],
      "type": "MAT4"
    },
    {
      "bufferView": 1,
      "componentType": 5126,
      "count": 7783,
      "max": [
        0.31734514236450195,
        1.1357697248458862,
        0.42045801877975464
      ],
      "min": [
        -0.3321390450000763,
        -0.5457428693771362,
        -0.37915119528770447
      ],
      "type": "VEC3"
    },
    {
      "bufferView": 2,
      "componentType": 5126,
      "count": 7783,
      "max": [
        0.9998760223388672,
        0.9988858699798584,
        0.9998760223388672
      ],
      "min": [
        -0.999225914478302,
        -0.999845027923584,
        -0.9999690055847168
      ],
      "type": "VEC3"
    },
    {
      "bufferView": 3,
      "componentType": 5126,
      "count": 7783,
      "max": [
        0.9988859295845032,
        1.0,
        0.9999690055847168,
        1.0
      ],
      "min": [
        -0.9997211694717407,
        -0.9994733929634094,
        -0.9989476799964905,
        1.0
      ],
      "type": "VEC4"
    },
    {
      "bufferView": 4,
      "componentType": 5126,
      "count": 7783,
      "max": [
        0.99853515625,
        0.99853515625
      ],
      "min": [
        0.001476287841796875,
        0.0009927749633789063
      ],
      "type": "VEC2"
    },
    {
      "bufferView": 5,
      "componentType": 5126,
      "count": 7783,
      "max": [
        1.0,
        0.49803921580314636,
        0.250980406999588,
        0.0
      ],
      "min": [
        0.4470588266849518,
        0.0,
        0.0,
        0.0
      ],
      "type": "VEC4"
    },
    {
      "bufferView": 6,
      "componentType": 5123,
      "count": 7783,
      "max": [
        3,
        3,
        3,
        2
      ],
      "min": [
        0,
        0,
        0,
        2
      ],
      "type": "VEC4"
    },
    {
      "bufferView": 7,
      "componentType": 5125,
      "count": 39093,
      "max": [
        7782
      ],
      "min": [
        0
      ],
      "type": "SCALAR"
    }
  ],
  "asset": {
    "version": "2.0"
  },
  "bufferViews": [
    {
      "buffer": 0,
      "byteLength": 256
    },
    {
      "buffer": 0,
      "byteLength": 93396,
      "byteOffset": 256,
      "target": 34962
    },
    {
      "buffer": 0,
      "byteLength": 93396,
      "byteOffset": 93652,
      "target": 34962
    },
    {
      "buffer": 0,
      "byteLength": 124528,
      "byteOffset": 187048,
      "target": 34962
    },
    {
      "buffer": 0,
      "byteLength": 62264,
      "byteOffset": 311576,
      "target": 34962
    },
    {
      "buffer": 0,
      "byteLength": 124528,
      "byteOffset": 373840,
      "target": 34962
    },
    {
      "buffer": 0,
      "byteLength": 62264,
      "byteOffset": 498368,
      "target": 34962
    },
    {
      "buffer": 0,
      "byteLength": 156372,
      "byteOffset": 560632,
      "target": 34963
    }
  ],
  "buffers": [
    {
      "byteLength": 717004,
      "uri": "SKM_Hairy_Beast_Hammer.bin"
    }
  ],
  "images": [
    {
      "uri": "MI_Hairy_Beast_Hammer_Base.DDS"
    },
    {
      "uri": "MI_Hairy_Beast_Hammer_MetallicRoughness.DDS"
    },
    {
      "uri": "MI_Hairy_Beast_Hammer_Normal.DDS"
    },
    {
      "uri": "MI_Hairy_Beast_Hammer_Occlusion.DDS"
    }
  ],
  "materials": [
    {
      "name": "MI_Hairy_Beast_Hammer",
      "normalTexture": {
        "index": 2
      },
      "occlusionTexture": {
        "index": 3
      },
      "pbrMetallicRoughness": {
        "baseColorTexture": {
          "index": 0
        },
        "metallicRoughnessTexture": {
          "index": 1
        }
      }
    }
  ],
  "meshes": [
    {
      "primitives": [
        {
          "attributes": {
            "JOINTS_0": 6,
            "NORMAL": 2,
            "POSITION": 1,
            "TANGENT": 3,
            "TEXCOORD_0": 4,
            "WEIGHTS_0": 5
          },
          "indices": 7,
          "material": 0,
          "mode": 4
        }
      ]
    }
  ],
  "nodes": [
    {
      "mesh": 0,
      "name": "Mesh",
      "rotation": [
        0.0,
        0.0,
        -0.0,
        -1.0
      ],
      "scale": [
        1.0,
        1.0,
        1.0
      ],
      "skin": 0,
      "translation": [
        -0.0,
        0.0,
        0.0
      ]
    },
    {
      "children": [
        2
      ],
      "name": "Armature",
      "rotation": [
        0.0,
        0.0,
        -0.0,
        -1.0
      ],
      "scale": [
        1.0,
        1.0,
        1.0
      ],
      "translation": [
        -0.0,
        0.0,
        0.0
      ]
    },
    {
      "children": [
        3,
        4
      ],
      "name": "root_weapon",
      "rotation": [
        -0.7071065902709961,
        0.0,
        -0.0,
        -0.7071069478988647
      ],
      "scale": [
        1.0,
        1.0,
        1.0
      ],
      "translation": [
        -0.0,
        0.0,
        0.0
      ]
    },
    {
      "name": "low",
      "rotation": [
        0.0,
        0.0,
        -0.0,
        -1.0
      ],
      "scale": [
        1.0,
        1.0,
        1.0
      ],
      "translation": [
        -0.0,
        -1.4210854715202004e-14,
        0.5397019982337952
      ]
    },
    {
      "children": [
        5
      ],
      "name": "mid",
      "rotation": [
        0.0,
        0.0,
        -0.0,
        -1.0
      ],
      "scale": [
        1.0,
        1.0,
        1.0
      ],
      "translation": [
        -0.0,
        0.0,
        -0.456900417804718
      ]
    },
    {
      "name": "top",
      "rotation": [
        0.0,
        0.0,
        -0.0,
        -1.0
      ],
      "scale": [
        1.0,
        1.0,
        1.0
      ],
      "translation": [
        -0.0,
        0.0,
        -0.44975894689559937
      ]
    }
  ],
  "samplers": [
    {
      "wrapS": 10497,
      "wrapT": 10497
    }
  ],
  "scenes": [
    {
      "nodes": [
        0,
        1
      ]
    }
  ],
  "skins": [
    {
      "inverseBindMatrices": 0,
      "joints": [
        2,
        3,
        4,
        5
      ]
    }
  ],
  "textures": [
    {
      "sampler": 0,
      "source": 0
    },
    {
      "sampler": 0,
      "source": 1
    },
    {
      "sampler": 0,
      "source": 2
    },
    {
      "sampler": 0,
      "source": 3
    }
  ]
}
