{
  "accessors": [
    {
      "bufferView": 0,
      "componentType": 5126,
      "count": 1,
      "max": [
        1.0,
        -0.0,
        -0.0,
        0.0,
        -0.0,
        1.0,
        0.0,
        0.0,
        -0.0,
        0.0,
        1.0,
        0.0,
        -0.0,
        0.0,
        0.0,
        1.0
      ],
      "min": [
        1.0,
        -0.0,
        -0.0,
        0.0,
        -0.0,
        1.0,
        0.0,
        0.0,
        -0.0,
        0.0,
        1.0,
        0.0,
        -0.0,
        0.0,
        0.0,
        1.0
      ],
      "type": "MAT4"
    },
    {
      "bufferView": 1,
      "componentType": 5126,
      "count": 360,
      "max": [
        0.923760712146759,
        0.07709528505802155,
        0.13895957171916962
      ],
      "min": [
        -0.28257253766059875,
        -0.07709532231092453,
        -0.1452731341123581
      ],
      "type": "VEC3"
    },
    {
      "bufferView": 2,
      "componentType": 5126,
      "count": 360,
      "max": [
        1.0,
        1.0,
        0.9999690055847168
      ],
      "min": [
        -0.9998760223388672,
        -1.0,
        -0.9999690055847168
      ],
      "type": "VEC3"
    },
    {
      "bufferView": 3,
      "componentType": 5126,
      "count": 360,
      "max": [
        0.9845877885818481,
        0.9998760223388672,
        0.9999690055847168,
        1.0
      ],
      "min": [
        -0.9999380111694336,
        -0.9998760223388672,
        -0.9995043873786926,
        -1.0
      ],
      "type": "VEC4"
    },
    {
      "bufferView": 4,
      "componentType": 5126,
      "count": 360,
      "max": [
        0.9853515625,
        0.96044921875
      ],
      "min": [
        0.0120849609375,
        0.334716796875
      ],
      "type": "VEC2"
    },
    {
      "bufferView": 5,
      "componentType": 5126,
      "count": 360,
      "max": [
        1.0,
        0.0,
        0.0,
        0.0
      ],
      "min": [
        1.0,
        0.0,
        0.0,
        0.0
      ],
      "type": "VEC4"
    },
    {
      "bufferView": 6,
      "componentType": 5123,
      "count": 360,
      "max": [
        0,
        0,
        0,
        0
      ],
      "min": [
        0,
        0,
        0,
        0
      ],
      "type": "VEC4"
    },
    {
      "bufferView": 7,
      "componentType": 5125,
      "count": 1356,
      "max": [
        359
      ],
      "min": [
        0
      ],
      "type": "SCALAR"
    }
  ],
  "asset": {
    "version": "2.0"
  },
  "bufferViews": [
    {
      "buffer": 0,
      "byteLength": 64
    },
    {
      "buffer": 0,
      "byteLength": 4320,
      "byteOffset": 64,
      "target": 34962
    },
    {
      "buffer": 0,
      "byteLength": 4320,
      "byteOffset": 4384,
      "target": 34962
    },
    {
      "buffer": 0,
      "byteLength": 5760,
      "byteOffset": 8704,
      "target": 34962
    },
    {
      "buffer": 0,
      "byteLength": 2880,
      "byteOffset": 14464,
      "target": 34962
    },
    {
      "buffer": 0,
      "byteLength": 5760,
      "byteOffset": 17344,
      "target": 34962
    },
    {
      "buffer": 0,
      "byteLength": 2880,
      "byteOffset": 23104,
      "target": 34962
    },
    {
      "buffer": 0,
      "byteLength": 5424,
      "byteOffset": 25984,
      "target": 34963
    }
  ],
  "buffers": [
    {
      "byteLength": 31408,
      "uri": "SK_Werewolf_Type_C_Weapon.bin"
    }
  ],
  "images": [
    {
      "uri": "M_Werewolf_Armour_Base.DDS"
    },
    {
      "uri": "M_Werewolf_Armour_Normal.DDS"
    }
  ],
  "materials": [
    {
      "alphaCutoff": 0.33329999446868896,
      "alphaMode": "MASK",
      "name": "M_Werewolf_Armour",
      "normalTexture": {
        "index": 1
      },
      "pbrMetallicRoughness": {
        "baseColorTexture": {
          "index": 0
        },
        "metallicFactor": 0.0,
        "roughnessFactor": 0.5
      }
    }
  ],
  "meshes": [
    {
      "primitives": [
        {
          "attributes": {
            "JOINTS_0": 6,
            "NORMAL": 2,
            "POSITION": 1,
            "TANGENT": 3,
            "TEXCOORD_0": 4,
            "WEIGHTS_0": 5
          },
          "indices": 7,
          "material": 0,
          "mode": 4
        }
      ]
    }
  ],
  "nodes": [
    {
      "mesh": 0,
      "name": "Mesh",
      "rotation": [
        0.0,
        0.0,
        -0.0,
        -1.0
      ],
      "scale": [
        1.0,
        1.0,
        1.0
      ],
      "skin": 0,
      "translation": [
        -0.0,
        0.0,
        0.0
      ]
    },
    {
      "children": [
        2
      ],
      "name": "Armature",
      "rotation": [
        0.0,
        0.0,
        -0.0,
        -1.0
      ],
      "scale": [
        1.0,
        1.0,
        1.0
      ],
      "translation": [
        -0.0,
        0.0,
        0.0
      ]
    },
    {
      "name": "Bone_Weapon",
      "rotation": [
        0.0,
        0.0,
        -0.0,
        -1.0
      ],
      "scale": [
        1.0,
        1.0,
        1.0
      ],
      "translation": [
        -0.0,
        0.0,
        0.0
      ]
    }
  ],
  "samplers": [
    {
      "wrapS": 10497,
      "wrapT": 10497
    }
  ],
  "scenes": [
    {
      "nodes": [
        0,
        1
      ]
    }
  ],
  "skins": [
    {
      "inverseBindMatrices": 0,
      "joints": [
        2
      ]
    }
  ],
  "textures": [
    {
      "sampler": 0,
      "source": 0
    },
    {
      "sampler": 0,
      "source": 1
    }
  ]
}
