{
  "accessors": [
    {
      "bufferView": 0,
      "componentType": 5126,
      "count": 169,
      "max": [
        0.04148727282881737,
        0.14179787039756775,
        1.550756812095642
      ],
      "min": [
        -0.04148731008172035,
        -0.14179787039756775,
        -0.2500000298023224
      ],
      "type": "VEC3"
    },
    {
      "bufferView": 1,
      "componentType": 5126,
      "count": 169,
      "max": [
        1.0,
        1.0,
        1.0
      ],
      "min": [
        -1.0,
        -1.0,
        -1.0
      ],
      "type": "VEC3"
    },
    {
      "bufferView": 2,
      "componentType": 5126,
      "count": 169,
      "max": [
        1.0,
        1.0,
        1.0,
        1.0
      ],
      "min": [
        -1.0,
        -1.0,
        -0.2043699473142624,
        -1.0
      ],
      "type": "VEC4"
    },
    {
      "bufferView": 3,
      "componentType": 5126,
      "count": 169,
      "max": [
        0.93505859375,
        0.96923828125
      ],
      "min": [
        0.0753173828125,
        0.050201416015625
      ],
      "type": "VEC2"
    },
    {
      "bufferView": 4,
      "componentType": 5126,
      "count": 169,
      "max": [
        0.947265625,
        0.99169921875
      ],
      "min": [
        0.00806427001953125,
        0.00806427001953125
      ],
      "type": "VEC2"
    },
    {
      "bufferView": 5,
      "componentType": 5125,
      "count": 468,
      "max": [
        168
      ],
      "min": [
        0
      ],
      "type": "SCALAR"
    }
  ],
  "asset": {
    "version": "2.0"
  },
  "bufferViews": [
    {
      "buffer": 0,
      "byteLength": 2028,
      "target": 34962
    },
    {
      "buffer": 0,
      "byteLength": 2028,
      "byteOffset": 2028,
      "target": 34962
    },
    {
      "buffer": 0,
      "byteLength": 2704,
      "byteOffset": 4056,
      "target": 34962
    },
    {
      "buffer": 0,
      "byteLength": 1352,
      "byteOffset": 6760,
      "target": 34962
    },
    {
      "buffer": 0,
      "byteLength": 1352,
      "byteOffset": 8112,
      "target": 34962
    },
    {
      "buffer": 0,
      "byteLength": 1872,
      "byteOffset": 9464,
      "target": 34963
    }
  ],
  "buffers": [
    {
      "byteLength": 11336,
      "uri": "SM_GreatSword.bin"
    }
  ],
  "materials": [
    {
      "name": "M_Props",
      "pbrMetallicRoughness": {
        "baseColorFactor": [
          0.796875,
          0.796875,
          0.796875,
          1.0
        ],
        "metallicFactor": 0.0,
        "roughnessFactor": 0.800000011920929
      }
    }
  ],
  "meshes": [
    {
      "primitives": [
        {
          "attributes": {
            "NORMAL": 1,
            "POSITION": 0,
            "TANGENT": 2,
            "TEXCOORD_0": 3,
            "TEXCOORD_1": 4
          },
          "indices": 5,
          "material": 0,
          "mode": 4
        }
      ]
    }
  ],
  "nodes": [
    {
      "mesh": 0,
      "name": "Mesh",
      "rotation": [
        -0.0,
        0.0,
        0.0,
        -1.0
      ],
      "scale": [
        1.0,
        1.0,
        1.0
      ],
      "translation": [
        -0.0,
        0.0,
        0.0
      ]
    }
  ],
  "samplers": [
    {
      "wrapS": 10497,
      "wrapT": 10497
    }
  ],
  "scenes": [
    {
      "nodes": [
        0
      ]
    }
  ]
}
